<svg xmlns="http://www.w3.org/2000/svg">
    <symbol id="search">
        <svg width="20" height="20" viewBox="0 0 20 20" fill="none" xmlns="http://www.w3.org/2000/svg">
            <path fill-rule="evenodd" clip-rule="evenodd" d="M12.331 11.0715L15.8859 14.6313C16.0447 14.8079 16.0368 15.0783 15.8681 15.2454L15.246 15.8684C15.1626 15.9526 15.049 16 14.9305 16C14.812 16 14.6985 15.9526 14.615 15.8684L11.0601 12.3085C10.9618 12.21 10.8726 12.1028 10.7935 11.9881L10.127 11.0982C9.02413 11.9801 7.6546 12.4602 6.24327 12.4598C3.33502 12.4699 0.807867 10.461 0.157951 7.62231C-0.491966 4.78365 0.90881 1.87288 3.53098 0.613257C6.15315 -0.646363 9.29689 0.0813446 11.101 2.36555C12.9052 4.64977 12.8882 7.88086 11.0601 10.1459L11.9489 10.76C12.0877 10.849 12.2159 10.9535 12.331 11.0715ZM1.79968 6.23008C1.79968 8.68763 3.78915 10.6799 6.24329 10.6799C7.42181 10.6799 8.55206 10.2111 9.3854 9.37656C10.2187 8.54206 10.6869 7.41024 10.6869 6.23008C10.6869 3.77252 8.69743 1.78027 6.24329 1.78027C3.78915 1.78027 1.79968 3.77252 1.79968 6.23008Z" fill="black"/>
        </svg>
    </symbol>
    <symbol id="arrow">
            <path d="M23.5303 6.53033C23.8232 6.23744 23.8232 5.76257 23.5303 5.46967L18.7574 0.696701C18.4645 0.403807 17.9896 0.403807 17.6967 0.696701C17.4038 0.989594 17.4038 1.46447 17.6967 1.75736L21.9393 6L17.6967 10.2426C17.4038 10.5355 17.4038 11.0104 17.6967 11.3033C17.9896 11.5962 18.4645 11.5962 18.7574 11.3033L23.5303 6.53033ZM-6.55671e-08 6.75L23 6.75L23 5.25L6.55671e-08 5.25L-6.55671e-08 6.75Z" fill="#7B7B7B"/>
    </symbol>
    <symbol id="hamburger">
            <line y1="1" x2="34" y2="1" stroke="black" stroke-width="2"/>
            <line y1="11" x2="34" y2="11" stroke="black" stroke-width="2"/>
            <line y1="21" x2="34" y2="21" stroke="black" stroke-width="2"/>
    </symbol>
</svg>