<svg xmlns="http://www.w3.org/2000/svg">
    <symbol id="search">
        <path clip-rule="evenodd"
              d="M13.8942 11.0715L17.6712 14.6313C17.8399 14.8079 17.8316 15.0783 17.6524 15.2454L16.9914 15.8684C16.9027 15.9526 16.7821 16 16.6562 16C16.5303 16 16.4096 15.9526 16.3209 15.8684L12.5439 12.3085C12.4394 12.21 12.3446 12.1028 12.2606 11.9881L11.5524 11.0982C10.3806 11.9801 8.92549 12.4602 7.42595 12.4598C4.33594 12.4699 1.65084 10.461 0.960303 7.62231C0.269767 4.78365 1.75809 1.87288 4.54414 0.613257C7.3302 -0.646363 10.6704 0.0813446 12.5873 2.36555C14.5042 4.64977 14.4862 7.88086 12.5439 10.1459L13.4881 10.76C13.6356 10.849 13.7718 10.9535 13.8942 11.0715ZM2.70508 6.23017C2.70508 8.68773 4.81889 10.68 7.42641 10.68C8.67859 10.68 9.87948 10.2112 10.7649 9.37666C11.6503 8.54216 12.1477 7.41034 12.1477 6.23017C12.1477 3.77262 10.0339 1.78037 7.42641 1.78037C4.81889 1.78037 2.70508 3.77262 2.70508 6.23017Z"
              fill="black"
              fill-rule="evenodd"
        />
    </symbol>
    <symbol id="arrow">
            <path d="M23.5303 6.53033C23.8232 6.23744 23.8232 5.76257 23.5303 5.46967L18.7574 0.696701C18.4645 0.403807 17.9896 0.403807 17.6967 0.696701C17.4038 0.989594 17.4038 1.46447 17.6967 1.75736L21.9393 6L17.6967 10.2426C17.4038 10.5355 17.4038 11.0104 17.6967 11.3033C17.9896 11.5962 18.4645 11.5962 18.7574 11.3033L23.5303 6.53033ZM-6.55671e-08 6.75L23 6.75L23 5.25L6.55671e-08 5.25L-6.55671e-08 6.75Z" fill="#7B7B7B"/>
    </symbol>
    <symbol id="hamburger">
            <line y1="1" x2="34" y2="1" stroke="black" stroke-width="2"/>
            <line y1="11" x2="34" y2="11" stroke="black" stroke-width="2"/>
            <line y1="21" x2="34" y2="21" stroke="black" stroke-width="2"/>
    </symbol>
</svg>